:FULLY-SPECIFIED
:FORCE-ALL-JOINTS-BE-3DOF
:DEGREES
849
root 3.85059 16.354 28.1651 -9.01542 5.84461 -2.0972
lfemur -22.5119 1.66184 -14.8821
ltibia 35.4726 -0 0
lfoot -3.25577 -16.9342 0.183438
ltoes 6.67725 -0 0
rfemur -26.8385 -4.37597 3.50613
rtibia 70.9642 -0 0
rfoot 21.7472 10.5481 -0.0433035
rtoes -15.6482 0 0
lowerback 3.55544 2.94347 -0.852529
upperback 0.910579 3.89833 0.479665
thorax -1.0376 1.95754 1.10247
lowerneck -6.28946 -3.54905 2.85232
upperneck 9.32348 -5.23745 1.73854
head 4.13811 -2.39807 -0.203149
lclavicle 3.10741e-14 -1.39618e-14 -6.57928e-31
lhumerus -49.4298 -9.44606 83.858
lradius 54.0132 -0 0
lwrist 19.2506 0 0
lhand -1.3335 4.05943 -0.0794211
lfingers 7.12502 -0 0
lthumb 24.3181 32.5725 -0.0470394
rclavicle 3.10741e-14 -1.39618e-14 -6.57928e-31
rhumerus -39.9539 15.5868 -68.065
rradius 52.5227 -0 0
rwrist 6.55307 0 0
rhand -25.5688 -25.8588 -0.475414
rfingers 7.12502 -0 0
rthumb 0.963324 -55.7512 -0.445388
850
root 3.87018 16.3746 28.2579 -9.64259 6.87411 -1.94353
lfemur -21.566 1.86174 -15.3524
ltibia 35.3529 -0 0
lfoot -3.26816 -18.2033 0.199836
ltoes 8.39058 -0 0
rfemur -29.6257 -3.75273 3.43368
rtibia 69.7416 -0 0
rfoot 20.6012 9.35693 0.0492835
rtoes -14.3882 0 0
lowerback 4.35843 2.5588 -1.13506
upperback 1.19096 3.36622 0.374399
thorax -1.18641 1.69265 1.16278
lowerneck -6.28782 -3.54059 2.81682
upperneck 9.28724 -5.23188 1.84343
head 4.12971 -2.39229 -0.161809
lclavicle 3.08183e-14 -1.46208e-14 -7.17062e-31
lhumerus -48.3792 -10.3304 83.562
lradius 54.079 -0 0
lwrist 19.6032 0 0
lhand -0.784341 3.99598 -0.0910012
lfingers 7.12502 -0 0
lthumb 24.8461 32.4507 -0.0512358
rclavicle 3.08183e-14 -1.46208e-14 -7.17062e-31
rhumerus -40.8215 14.4277 -66.7956
rradius 52.1968 -0 0
rwrist 6.37354 0 0
rhand -24.1646 -25.9162 -0.540233
rfingers 7.12502 -0 0
rthumb 2.31901 -55.7916 -0.504363
851
root 3.88771 16.396 28.3471 -10.2622 7.92026 -1.803
lfemur -20.618 2.07852 -15.8052
ltibia 35.2083 -0 0
lfoot -3.29374 -19.4381 0.212863
ltoes 10.146 -0 0
rfemur -32.4489 -3.12076 3.36468
rtibia 68.4446 -0 0
rfoot 19.3707 8.12352 0.12958
rtoes -13.1154 0 0
lowerback 5.17955 2.17144 -1.42172
upperback 1.47809 2.82565 0.262336
thorax -1.33672 1.42336 1.21951
lowerneck -6.28603 -3.52878 2.78056
upperneck 9.23431 -5.22155 1.95214
head 4.11586 -2.38437 -0.118804
lclavicle 3.04709e-14 -1.52654e-14 -7.6314e-31
lhumerus -47.2966 -11.2415 83.258
lradius 54.1478 -0 0
lwrist 19.9612 0 0
lhand -0.21509 3.93856 -0.100894
lfingers 7.12502 -0 0
lthumb 25.3931 32.33 -0.0543221
rclavicle 3.04709e-14 -1.52654e-14 -7.6314e-31
rhumerus -41.6988 13.2702 -65.5348
rradius 51.8991 -0 0
rwrist 6.15752 0 0
rhand -22.7242 -25.9914 -0.598719
rfingers 7.12502 -0 0
rthumb 3.70969 -55.8476 -0.557613
852
root 3.90334 16.418 28.4333 -10.8692 8.974 -1.67628
lfemur -19.6772 2.31381 -16.2393
ltibia 35.0466 -0 0
lfoot -3.33308 -20.6246 0.221892
ltoes 11.9126 -0 0
rfemur -35.2849 -2.49974 3.30068
rtibia 67.1124 -0 0
rfoot 18.0844 6.87525 0.191265
rtoes -11.8445 0 0
lowerback 6.01011 1.78476 -1.71137
upperback 1.76898 2.28111 0.144551
thorax -1.48706 1.15189 1.27318
lowerneck -6.28466 -3.51427 2.74372
upperneck 9.16676 -5.20729 2.0638
head 4.09729 -2.3747 -0.0745036
lclavicle 3.00312e-14 -1.58874e-14 -7.93916e-31
lhumerus -46.1926 -12.1731 82.9492
lradius 54.2204 -0 0
lwrist 20.3195 0 0
lhand 0.373286 3.88937 -0.108608
lfingers 7.12502 -0 0
lthumb 25.958 32.2117 -0.0561543
rclavicle 3.00312e-14 -1.58874e-14 -7.93916e-31
rhumerus -42.5787 12.1148 -64.2863
rradius 51.6349 -0 0
rwrist 5.90388 0 0
rhand -21.2781 -26.0903 -0.647971
rfingers 7.12502 -0 0
rthumb 5.10566 -55.9252 -0.602539
853
root 3.91724 16.44 28.5167 -11.4586 10.0263 -1.56367
lfemur -18.7532 2.56906 -16.6531
ltibia 34.8759 -0 0
lfoot -3.38678 -21.7486 0.226319
ltoes 13.6592 -0 0
rfemur -38.1103 -1.90904 3.24573
rtibia 65.7841 -0 0
rfoot 16.7712 5.63978 0.230408
rtoes -10.5901 0 0
lowerback 6.84134 1.40196 -2.00265
upperback 2.06059 1.73707 0.0222162
thorax -1.63596 0.880478 1.32427
lowerneck -6.28422 -3.49769 2.70647
upperneck 9.08663 -5.18995 2.17755
head 4.07476 -2.36371 -0.0292804
lclavicle 2.94985e-14 -1.64788e-14 -8.07346e-31
lhumerus -45.078 -13.1191 82.6391
lradius 54.2977 -0 0
lwrist 20.6731 0 0
lhand 0.979807 3.85063 -0.113706
lfingers 7.12502 -0 0
lthumb 26.5399 32.0973 -0.0566222
rclavicle 2.94985e-14 -1.64788e-14 -8.07346e-31
rhumerus -43.4536 10.9614 -63.0545
rradius 51.4094 -0 0
rwrist 5.61143 0 0
rhand -19.8573 -26.2186 -0.684877
rfingers 7.12502 -0 0
rthumb 6.4772 -56.0306 -0.636305
854
root 3.9296 16.4618 28.5979 -12.0252 11.068 -1.4651
lfemur -17.855 2.84556 -17.0454
ltibia 34.7041 -0 0
lfoot -3.45541 -22.7961 0.225586
ltoes 15.3548 -0 0
rfemur -40.9016 -1.36758 3.20625
rtibia 64.499 -0 0
rfoot 15.4602 4.44496 0.245581
rtoes -9.36695 0 0
lowerback 7.66443 1.02612 -2.294
upperback 2.34985 1.19796 -0.103394
thorax -1.78197 0.611331 1.37325
lowerneck -6.28527 -3.47968 2.66899
upperneck 8.99599 -5.17036 2.29249
head 4.049 -2.3518 0.0164948
lclavicle 2.88719e-14 -1.70315e-14 -8.01659e-31
lhumerus -43.964 -14.0739 82.3321
lradius 54.3808 -0 0
lwrist 21.0169 0 0
lhand 1.60352 3.82458 -0.115809
lfingers 7.12502 -0 0
lthumb 27.1376 31.9882 -0.0556514
rclavicle 2.88719e-14 -1.70315e-14 -8.01659e-31
rhumerus -44.316 9.8096 -61.8436
rradius 51.2277 -0 0
rwrist 5.27903 0 0
rhand -18.4924 -26.3817 -0.706202
rfingers 7.12502 -0 0
rthumb 7.7946 -56.1695 -0.655917
855
root 3.94057 16.4831 28.6772 -12.5641 12.09 -1.38015
lfemur -16.9922 3.14447 -17.4149
ltibia 34.5393 -0 0
lfoot -3.53956 -23.753 0.219198
ltoes 16.9683 -0 0
rfemur -43.6353 -0.893692 3.19093
rtibia 63.2961 -0 0
rfoot 14.1807 3.31869 0.237829
rtoes -8.18971 0 0
lowerback 8.47054 0.660216 -2.58365
upperback 2.63365 0.668219 -0.230904
thorax -1.9236 0.346672 1.42053
lowerneck -6.28835 -3.46088 2.63143
upperneck 8.89688 -5.14939 2.40777
head 4.02075 -2.33938 0.0624514
lclavicle 2.81506e-14 -1.75372e-14 -7.75423e-31
lhumerus -42.8619 -15.0322 82.033
lradius 54.4705 -0 0
lwrist 21.346 0 0
lhand 2.24344 3.81344 -0.114598
lfingers 7.12502 -0 0
lthumb 27.7502 31.8858 -0.0532049
rclavicle 2.81506e-14 -1.75372e-14 -7.75423e-31
rhumerus -45.1582 8.65856 -60.6585
rradius 51.0949 -0 0
rwrist 4.90556 0 0
rhand -17.2144 -26.5852 -0.708694
rfingers 7.12502 -0 0
rthumb 9.02811 -56.3478 -0.658321
856
root 3.95032 16.5035 28.7551 -13.07 13.0832 -1.30808
lfemur -16.1739 3.46682 -17.7604
ltibia 34.3893 -0 0
lfoot -3.63981 -24.6051 0.206751
ltoes 18.4687 -0 0
rfemur -46.2879 -0.505047 3.2105
rtibia 62.2146 -0 0
rfoot 12.9616 2.28883 0.210487
rtoes -7.07306 0 0
lowerback 9.25075 0.307048 -2.86966
upperback 2.90882 0.152219 -0.358839
thorax -2.05941 0.0887224 1.46653
lowerneck -6.294 -3.44193 2.59398
upperneck 8.79135 -5.12789 2.52253
head 3.99075 -2.32687 0.108219
lclavicle 2.7334e-14 -1.7988e-14 -7.27613e-31
lhumerus -41.7837 -15.9888 81.7475
lradius 54.5679 -0 0
lwrist 21.6552 0 0
lhand 2.8986 3.81948 -0.109816
lfingers 7.12502 -0 0
lthumb 28.3766 31.7915 -0.0492843
rclavicle 2.7334e-14 -1.7988e-14 -7.27613e-31
rhumerus -45.9725 7.5069 -59.5041
rradius 51.0163 -0 0
rwrist 4.48979 0 0
rhand -16.054 -26.8342 -0.689226
rfingers 7.12502 -0 0
rthumb 10.1479 -56.571 -0.640542
